HIERARCHY
ROOT Hips
{
	OFFSET 56.877701 -32.693596 43.373703
	CHANNELS 6 Xposition Yposition Zposition Zrotation Xrotation Yrotation
	JOINT Chest
	{
		OFFSET -0.779999 1.005800 5.403099
		CHANNELS 6 Xposition Yposition Zposition Zrotation Xrotation Yrotation
		JOINT Chest2
		{
			OFFSET 0.000000 0.000000 4.236801
			CHANNELS 6 Xposition Yposition Zposition Zrotation Xrotation Yrotation
			JOINT Neck
			{
				OFFSET 0.000000 0.000000 9.874401
				CHANNELS 6 Xposition Yposition Zposition Zrotation Xrotation Yrotation
				JOINT Head
				{
					OFFSET 0.000000 0.000002 2.173893
					CHANNELS 6 Xposition Yposition Zposition Zrotation Xrotation Yrotation
					End Site
					{
						OFFSET 0.000000 0.000000 6.508102
					}
				}
			}
			JOINT LeftCollar
			{
				OFFSET 2.681599 -0.377600 5.432499
				CHANNELS 6 Xposition Yposition Zposition Zrotation Xrotation Yrotation
				JOINT LeftShoulder
				{
					OFFSET 5.161499 0.000000 0.000000
					CHANNELS 6 Xposition Yposition Zposition Zrotation Xrotation Yrotation
					JOINT LeftElbow
					{
						OFFSET 0.000000 0.000000 -10.869099
						CHANNELS 6 Xposition Yposition Zposition Zrotation Xrotation Yrotation
						JOINT LeftWrist
						{
							OFFSET 0.000000 0.000000 -13.344799
							CHANNELS 6 Xposition Yposition Zposition Zrotation Xrotation Yrotation
							End Site
							{
								OFFSET 0.000000 0.000000 -2.173901
							}
						}
					}
				}
			}
			JOINT RightCollar
			{
				OFFSET -2.381901 -1.419600 6.136600
				CHANNELS 6 Xposition Yposition Zposition Zrotation Xrotation Yrotation
				JOINT RightShoulder
				{
					OFFSET -4.550499 0.000000 0.000000
					CHANNELS 6 Xposition Yposition Zposition Zrotation Xrotation Yrotation
					JOINT RightElbow
					{
						OFFSET 0.000000 0.000000 -11.106499
						CHANNELS 6 Xposition Yposition Zposition Zrotation Xrotation Yrotation
						JOINT RightWrist
						{
							OFFSET 0.000000 0.000000 -12.874298
							CHANNELS 6 Xposition Yposition Zposition Zrotation Xrotation Yrotation
							End Site
							{
								OFFSET 0.000000 0.000000 -2.173901
							}
						}
					}
				}
			}
		}
	}
	JOINT LeftHip
	{
		OFFSET 2.431900 0.469601 -2.489399
		CHANNELS 6 Xposition Yposition Zposition Zrotation Xrotation Yrotation
		JOINT LeftKnee
		{
			OFFSET 0.000000 -0.000004 -18.200201
			CHANNELS 6 Xposition Yposition Zposition Zrotation Xrotation Yrotation
			JOINT LeftAnkle
			{
				OFFSET 0.000000 0.000000 -16.279900
				CHANNELS 6 Xposition Yposition Zposition Zrotation Xrotation Yrotation
				End Site
				{
					OFFSET 0.000000 -8.394100 0.000000
				}
			}
		}
	}
	JOINT RightHip
	{
		OFFSET -1.987999 -0.073502 -2.713001
		CHANNELS 6 Xposition Yposition Zposition Zrotation Xrotation Yrotation
		JOINT RightKnee
		{
			OFFSET 0.000000 -0.000004 -19.547802
			CHANNELS 6 Xposition Yposition Zposition Zrotation Xrotation Yrotation
			JOINT RightAnkle
			{
				OFFSET 0.000000 0.000000 -14.881199
				CHANNELS 6 Xposition Yposition Zposition Zrotation Xrotation Yrotation
				End Site
				{
					OFFSET 0.000000 -7.922699 0.000000
				}
			}
		}
	}
}
MOTION
Frames: 6
Frame Time: 0.041667
51.202202 -40.849094 44.734005 1786.443737 9.346176 3.757148 -0.779990 1.005809 5.403092 13.038543 -14.168793 1.250163 -0.000005 0.000002 4.236798 -8.803222 -0.401085 -0.461000 0.000005 -0.000002 9.874399 26.162992 8.897468 -13.041375 -0.000004 0.000003 2.173892 2.754379 0.644262 5.157393 2.681594 -0.377604 5.432496 9.257393 -6.037257 -10.728474 5.161505 0.000001 -0.000004 191.878114 -102.192498 104.934430 0.000007 -0.000001 -10.869102 33.319114 1.979086 -5.205449 -0.000006 0.000001 -13.344812 201.242672 5.377229 -11.702680 -2.381907 -1.419608 6.136594 -5.187431 -27.598663 45.690021 -4.550501 -0.000003 0.000019 -801.089228 -487.957348 -368.519961 -0.000004 -0.000010 -11.106496 -95.484440 -60.346968 -99.891332 -0.000001 0.000003 -12.874300 -771.093059 -3.162108 -11.113396 2.431906 0.469604 -2.489404 5.707131 -15.593336 -1.731887 0.000004 -0.000005 -18.200197 4.846660 27.208473 7.532310 -0.000002 -0.000010 -16.279900 1.540423 30.179297 -22.083591 -1.987991 -0.073489 -2.713015 -99.631204 -41.628470 -52.664180 -0.000007 -0.000002 -19.547800 -733.969232 62.625321 44.439898 0.000004 0.000004 -14.881195 539.599261 112.673642 189.582310
51.226898 -40.855301 44.744598 1786.111188 9.183389 3.805997 -0.779996 1.005798 5.403106 13.353774 -13.890700 1.360154 -0.000002 0.000004 4.236798 -9.231731 -0.431393 -0.519924 -0.000002 -0.000001 9.874390 21.925213 9.967736 -12.062841 0.000001 0.000005 2.173886 2.327034 0.449770 4.703978 2.681598 -0.377600 5.432494 9.615954 -6.447307 -11.548373 5.161505 -0.000002 -0.000001 192.465742 -102.319785 105.415261 0.000003 -0.000007 -10.869095 32.035151 2.278081 -5.313611 -0.000015 0.000006 -13.344797 202.494810 5.214943 -11.549813 -2.381897 -1.419603 6.136593 -5.501783 -27.570936 44.913278 -4.550505 0.000001 0.000006 -800.916342 -488.350985 -368.432398 0.000005 -0.000012 -11.106498 -95.101245 -60.402375 -99.336168 -0.000006 -0.000001 -12.874306 -771.044100 -3.163158 -11.147676 2.431903 0.469596 -2.489399 5.757137 -15.517006 -1.638490 0.000010 -0.000008 -18.200207 4.643630 27.345868 7.424446 -0.000004 -0.000002 -16.279896 1.918426 30.024043 -21.914949 -1.987995 -0.073509 -2.712997 -99.248079 -41.797291 -52.176870 -0.000008 -0.000002 -19.547787 -733.781703 63.154395 44.238278 -0.000000 0.000004 -14.881196 540.278782 112.262704 188.553164
51.249401 -40.858192 44.754700 1785.837106 9.118987 3.885386 -0.779990 1.005801 5.403091 13.603778 -13.718772 1.408707 0.000005 0.000002 4.236804 -9.622601 -0.339651 -0.558419 0.000003 0.000004 9.874409 17.649142 10.750386 -10.936822 -0.000004 0.000004 2.173902 1.881736 0.365182 4.088984 2.681596 -0.377592 5.432505 9.863329 -6.846219 -12.260031 5.161509 0.000004 -0.000008 193.151275 -102.231430 105.901393 -0.000002 0.000004 -10.869099 31.433688 2.541691 -5.348030 -0.000011 0.000003 -13.344810 202.747513 5.265959 -11.365437 -2.381907 -1.419600 6.136591 -5.815940 -27.666612 44.151501 -4.550508 0.000001 0.000014 -800.678051 -488.748557 -368.264047 0.000001 -0.000005 -11.106496 -94.970912 -61.775509 -99.039532 0.000005 0.000005 -12.874297 -772.352764 -3.225907 -11.203525 2.431903 0.469604 -2.489402 5.877831 -15.573482 -1.580883 0.000005 -0.000001 -18.200201 4.423320 27.539091 7.332228 -0.000000 -0.000001 -16.279900 2.169761 29.867150 -21.858011 -1.987993 -0.073501 -2.713005 -98.610781 -41.954717 -51.483265 -0.000009 -0.000005 -19.547792 -733.594829 63.262278 43.793547 0.000002 0.000005 -14.881197 541.589796 111.645425 187.528663
51.272198 -40.858192 44.760700 1785.616573 9.067435 3.926228 -0.779994 1.005807 5.403095 13.811051 -13.502783 1.407511 0.000006 0.000003 4.236799 -9.912729 -0.412782 -0.605884 -0.000002 -0.000003 9.874405 13.390707 11.584599 -9.723561 -0.000003 0.000002 2.173892 1.412990 0.261694 3.358353 2.681598 -0.377597 5.432510 10.100871 -7.051915 -12.785230 5.161496 -0.000003 -0.000003 193.346099 -102.021887 105.979674 0.000003 0.000006 -10.869102 31.612117 2.724840 -5.370280 0.000009 -0.000006 -13.344807 202.078947 5.416349 -11.189189 -2.381906 -1.419607 6.136596 -6.180960 -27.804530 43.566908 -4.550498 -0.000003 0.000016 -800.737555 -489.055970 -368.460729 0.000001 -0.000008 -11.106503 -95.095515 -63.371964 -98.726457 -0.000002 -0.000012 -12.874301 -773.890322 -3.266948 -11.277057 2.431901 0.469606 -2.489393 6.036695 -15.649736 -1.501917 -0.000009 -0.000009 -18.200195 4.269868 27.751906 7.239617 0.000003 -0.000001 -16.279898 2.281861 29.732609 -21.837974 -1.987999 -0.073496 -2.712996 -97.712604 -42.146041 -50.535815 -0.000004 -0.000002 -19.547800 -733.236599 62.857418 42.939145 -0.000002 -0.000003 -14.881200 543.604647 110.835051 186.072398
51.293098 -40.856300 44.761002 1785.433524 9.034442 3.938935 -0.779994 1.005803 5.403099 13.989463 -13.285670 1.379800 0.000004 0.000001 4.236803 -10.118676 -0.516790 -0.645908 0.000003 -0.000003 9.874407 9.222085 12.309300 -8.451423 0.000005 0.000007 2.173884 0.973083 0.021779 2.518393 2.681602 -0.377600 5.432499 10.197034 -7.085026 -13.127056 5.161505 0.000003 -0.000005 192.710017 -101.847990 105.149417 0.000001 -0.000003 -10.869097 32.959413 2.805710 -5.442504 -0.000005 -0.000010 -13.344802 200.294546 5.666834 -11.079768 -2.381899 -1.419604 6.136597 -6.593025 -28.031165 43.112612 -4.550511 -0.000002 0.000009 -801.035952 -489.253827 -368.977419 0.000002 -0.000008 -11.106492 -95.442113 -64.864845 -98.519400 0.000005 -0.000002 -12.874298 -775.289309 -3.031152 -11.177786 2.431905 0.469605 -2.489400 6.147677 -15.718176 -1.432911 0.000007 -0.000003 -18.200199 4.172975 27.921649 7.185847 -0.000003 -0.000001 -16.279898 2.374727 29.629723 -21.912154 -1.987988 -0.073500 -2.712997 -96.640770 -42.296226 -49.412099 -0.000004 0.000004 -19.547808 -733.021530 62.003822 42.067012 -0.000005 0.000004 -14.881195 545.707854 109.918221 185.327307
51.312599 -40.852596 44.754501 1785.279544 9.023344 3.925726 -0.780001 1.005804 5.403094 14.147284 -13.092072 1.336166 -0.000002 0.000000 4.236793 -10.274974 -0.641180 -0.681955 0.000000 -0.000008 9.874399 5.275475 13.012113 -7.189633 -0.000000 0.000000 2.173895 0.463287 -0.219816 1.617618 2.681592 -0.377600 5.432504 10.200549 -6.998747 -13.339183 5.161506 -0.000002 0.000003 191.225093 -101.903779 103.444342 0.000001 0.000006 -10.869090 34.606011 2.852203 -5.535458 -0.000004 -0.000003 -13.344808 198.690640 5.850777 -11.037464 -2.381900 -1.419605 6.136593 -6.960359 -28.237858 42.851135 -4.550508 0.000001 0.000013 -801.622092 -489.312129 -369.719943 0.000006 -0.000010 -11.106491 -96.423461 -67.764424 -98.747644 0.000006 -0.000004 -12.874294 -778.061600 -3.402996 -11.288850 2.431900 0.469598 -2.489399 6.199714 -15.772044 -1.387084 0.000001 -0.000011 -18.200205 4.247008 28.030557 7.160631 -0.000005 0.000002 -16.279896 2.390544 29.580504 -22.129777 -1.988001 -0.073493 -2.713001 -95.410182 -42.408655 -48.143319 -0.000007 -0.000004 -19.547800 -732.707888 60.909769 41.021641 -0.000010 0.000004 -14.881196 548.068750 109.076229 184.360726
